<mxfile host="app.diagrams.net" agent="Mozilla/5.0 (Macintosh; Intel Mac OS X 10_15_7) AppleWebKit/537.36 (KHTML, like Gecko) Chrome/130.0.0.0 Safari/537.36" version="24.8.3">
  <diagram name="Page-1" id="5yACLu_tYYQ9U0vQjmjW">
    <mxGraphModel dx="2099" dy="775" grid="1" gridSize="10" guides="1" tooltips="1" connect="1" arrows="1" fold="1" page="1" pageScale="1" pageWidth="827" pageHeight="1169" math="0" shadow="0">
      <root>
        <mxCell id="0" />
        <mxCell id="1" parent="0" />
        <mxCell id="UiUJdN5zVrT5HYEZLua9-9" value="" style="endArrow=none;html=1;rounded=0;" parent="1" edge="1">
          <mxGeometry width="50" height="50" relative="1" as="geometry">
            <mxPoint x="-365" y="690" as="sourcePoint" />
            <mxPoint x="-205" y="540" as="targetPoint" />
          </mxGeometry>
        </mxCell>
        <mxCell id="UiUJdN5zVrT5HYEZLua9-10" value="&lt;font style=&quot;font-size: 24px;&quot;&gt;Pixel voltage&lt;/font&gt;" style="text;html=1;align=center;verticalAlign=middle;resizable=0;points=[];autosize=1;strokeColor=none;fillColor=none;" parent="1" vertex="1">
          <mxGeometry x="-590" y="595" width="160" height="40" as="geometry" />
        </mxCell>
        <mxCell id="UiUJdN5zVrT5HYEZLua9-12" value="" style="endArrow=none;html=1;rounded=0;" parent="1" edge="1">
          <mxGeometry width="50" height="50" relative="1" as="geometry">
            <mxPoint x="180" y="621" as="sourcePoint" />
            <mxPoint x="290" y="621" as="targetPoint" />
          </mxGeometry>
        </mxCell>
        <mxCell id="UiUJdN5zVrT5HYEZLua9-13" value="" style="endArrow=none;html=1;rounded=0;" parent="1" edge="1">
          <mxGeometry width="50" height="50" relative="1" as="geometry">
            <mxPoint x="290" y="622" as="sourcePoint" />
            <mxPoint x="290" y="562" as="targetPoint" />
          </mxGeometry>
        </mxCell>
        <mxCell id="UiUJdN5zVrT5HYEZLua9-16" value="" style="endArrow=none;html=1;rounded=0;" parent="1" edge="1">
          <mxGeometry width="50" height="50" relative="1" as="geometry">
            <mxPoint x="290" y="562" as="sourcePoint" />
            <mxPoint x="370" y="562" as="targetPoint" />
          </mxGeometry>
        </mxCell>
        <mxCell id="lRFk7MbAO2a7tx0u4MGu-3" value="&lt;font style=&quot;font-size: 36px;&quot;&gt;Ramp&lt;/font&gt;" style="text;html=1;align=center;verticalAlign=middle;resizable=0;points=[];autosize=1;strokeColor=none;fillColor=none;" parent="1" vertex="1">
          <mxGeometry x="-360" y="500" width="120" height="60" as="geometry" />
        </mxCell>
        <mxCell id="lRFk7MbAO2a7tx0u4MGu-4" value="" style="endArrow=none;dashed=1;html=1;dashPattern=1 3;strokeWidth=2;rounded=0;" parent="1" edge="1">
          <mxGeometry width="50" height="50" relative="1" as="geometry">
            <mxPoint x="-395" y="615" as="sourcePoint" />
            <mxPoint x="-115" y="615" as="targetPoint" />
          </mxGeometry>
        </mxCell>
        <mxCell id="lRFk7MbAO2a7tx0u4MGu-8" value="" style="shape=flexArrow;endArrow=classic;html=1;rounded=0;" parent="1" edge="1">
          <mxGeometry width="50" height="50" relative="1" as="geometry">
            <mxPoint x="-60" y="614.17" as="sourcePoint" />
            <mxPoint x="130" y="614.17" as="targetPoint" />
          </mxGeometry>
        </mxCell>
        <mxCell id="lRFk7MbAO2a7tx0u4MGu-10" value="&lt;font style=&quot;font-size: 24px;&quot;&gt;Comparator output&lt;/font&gt;" style="text;html=1;align=center;verticalAlign=middle;resizable=0;points=[];autosize=1;strokeColor=none;fillColor=none;" parent="1" vertex="1">
          <mxGeometry x="170" y="490" width="220" height="40" as="geometry" />
        </mxCell>
      </root>
    </mxGraphModel>
  </diagram>
</mxfile>
